<svg width="259" height="48" viewBox="0 0 259 48" fill="none" xmlns="http://www.w3.org/2000/svg">
<g clip-path="url(#clip0_146_12994)">
<path d="M56.0077 19.1307V19.0907C56.0077 15.3245 58.8518 12.2383 62.8994 12.2383C65.3602 12.2383 66.8529 13.0915 68.1304 14.3047L66.6243 16.0311C65.5552 15.0446 64.4122 14.3846 62.8792 14.3846C60.3377 14.3846 58.4685 16.4644 58.4685 19.064V19.104C58.4685 21.697 60.3243 23.7967 62.8792 23.7967C64.5198 23.7967 65.5754 23.1501 66.7184 22.0902L68.2245 23.6034C66.8327 25.0432 65.2997 25.9497 62.7985 25.9497C58.9056 25.9497 56.001 22.9368 56.001 19.1307H56.0077Z" fill="#004070"/>
<path d="M69.105 20.7772V20.7372C69.105 17.8776 71.3977 15.5112 74.4906 15.5112C77.5834 15.5112 79.856 17.8376 79.856 20.6972V20.7372C79.856 23.5768 77.5633 25.9431 74.4502 25.9431C71.3372 25.9431 69.105 23.6168 69.105 20.7772ZM77.5498 20.7772V20.7372C77.5498 18.9774 76.2723 17.5176 74.457 17.5176C72.6416 17.5176 71.4179 18.9574 71.4179 20.6972V20.7372C71.4179 22.4769 72.6954 23.9367 74.4906 23.9367C76.2858 23.9367 77.5431 22.4969 77.5431 20.7772H77.5498Z" fill="#004070"/>
<path d="M81.8262 15.7245H84.1391V17.2377C84.7913 16.3511 85.6654 15.5112 87.2118 15.5112C88.6641 15.5112 89.6928 16.2111 90.2307 17.271C91.0308 16.2111 92.0998 15.5112 93.6328 15.5112C95.8314 15.5112 97.1694 16.891 97.1694 19.3374V25.7165H94.8565V20.0373C94.8565 18.4442 94.1102 17.5976 92.8125 17.5976C91.5149 17.5976 90.6543 18.4708 90.6543 20.0773V25.7165H88.3413V20.0173C88.3413 18.4642 87.5749 17.5909 86.2974 17.5909C85.0199 17.5909 84.1391 18.5375 84.1391 20.0706V25.7098H81.8262V15.7112V15.7245Z" fill="#004070"/>
<path d="M99.5835 15.7245H101.896V17.2377C102.549 16.3511 103.423 15.5112 104.969 15.5112C106.421 15.5112 107.45 16.2111 107.988 17.271C108.788 16.2111 109.857 15.5112 111.39 15.5112C113.589 15.5112 114.927 16.891 114.927 19.3374V25.7165H112.614V20.0373C112.614 18.4442 111.868 17.5976 110.57 17.5976C109.272 17.5976 108.412 18.4708 108.412 20.0773V25.7165H106.099V20.0173C106.099 18.4642 105.332 17.5909 104.055 17.5909C102.777 17.5909 101.896 18.5375 101.896 20.0706V25.7098H99.5835V15.7112V15.7245Z" fill="#004070"/>
<path d="M116.984 20.7572V20.7172C116.984 17.8576 119.028 15.5112 121.912 15.5112C125.119 15.5112 126.747 18.0109 126.747 20.8905C126.747 21.0971 126.726 21.3104 126.706 21.5371H119.297C119.546 23.1635 120.709 24.0767 122.201 24.0767C123.331 24.0767 124.131 23.6634 124.931 22.8835L126.289 24.0767C125.335 25.2099 124.017 25.9498 122.161 25.9498C119.236 25.9498 116.984 23.8501 116.984 20.7638V20.7572ZM124.447 20.0239C124.292 18.5441 123.418 17.391 121.885 17.391C120.473 17.391 119.478 18.4708 119.27 20.0239H124.447Z" fill="#004070"/>
<path d="M128.69 15.7247H131.003V17.9777C131.635 16.4846 132.798 15.4581 134.573 15.5381V17.9644H134.439C132.415 17.9644 131.003 19.2709 131.003 21.9238V25.73H128.69V15.7314V15.7247Z" fill="#004070"/>
<path d="M135.292 20.7772V20.7372C135.292 17.8976 137.504 15.5112 140.543 15.5112C142.433 15.5112 143.616 16.2111 144.571 17.2377L143.119 18.7708C142.413 18.0309 141.666 17.5243 140.523 17.5243C138.842 17.5243 137.599 18.9641 137.599 20.7038V20.7438C137.599 22.5236 138.842 23.9434 140.617 23.9434C141.707 23.9434 142.507 23.4501 143.233 22.7102L144.625 24.0767C143.63 25.1766 142.466 25.9498 140.496 25.9498C137.498 25.9498 135.286 23.6234 135.286 20.7838L135.292 20.7772Z" fill="#004070"/>
<path d="M145.532 20.7572V20.7172C145.532 17.8576 147.576 15.5112 150.461 15.5112C153.668 15.5112 155.295 18.0109 155.295 20.8905C155.295 21.0971 155.275 21.3104 155.255 21.5371H147.845C148.094 23.1635 149.257 24.0767 150.75 24.0767C151.879 24.0767 152.679 23.6634 153.48 22.8835L154.838 24.0767C153.883 25.2099 152.565 25.9498 150.709 25.9498C147.785 25.9498 145.532 23.8501 145.532 20.7638V20.7572ZM152.995 20.0239C152.841 18.5441 151.967 17.391 150.434 17.391C149.022 17.391 148.027 18.4708 147.818 20.0239H152.995Z" fill="#004070"/>
<path d="M168.642 23.9232C167.572 25.063 166.288 25.8162 164.688 25.9229C162.194 26.0962 160.217 24.7364 160.055 22.45V22.4101C159.934 20.7103 160.856 19.4105 162.631 18.5106C161.804 17.5974 161.4 16.7908 161.333 15.831V15.791C161.205 14.0179 162.543 12.3648 164.923 12.1981C167.041 12.0515 168.568 13.3713 168.695 15.1444V15.1844C168.823 16.9242 167.734 18.044 166.006 18.8239L168.453 20.9703C168.917 20.177 169.327 19.2772 169.704 18.324L171.539 19.1238C171.082 20.217 170.564 21.2969 169.939 22.2501L172.205 24.2165L170.538 25.5829L168.642 23.9098V23.9232ZM167.209 22.6567L164.022 19.8571C162.819 20.4703 162.348 21.3235 162.402 22.1701V22.2101C162.483 23.3233 163.471 24.0698 164.769 23.9832C165.683 23.9165 166.49 23.4299 167.203 22.6567H167.209ZM166.631 15.4644V15.4244C166.564 14.5378 165.892 13.9779 165.018 14.0379C164.063 14.1045 163.464 14.8111 163.532 15.7376V15.7776C163.579 16.4376 163.881 16.9108 164.681 17.6707C166.019 17.0841 166.698 16.4109 166.631 15.4644Z" fill="#004070"/>
<path d="M175.977 19.1307V19.0907C175.977 15.3245 178.821 12.2383 182.869 12.2383C185.329 12.2383 186.822 13.0915 188.1 14.3047L186.594 16.0311C185.524 15.0446 184.381 14.3846 182.848 14.3846C180.307 14.3846 178.438 16.4644 178.438 19.064V19.104C178.438 21.697 180.294 23.7967 182.848 23.7967C184.489 23.7967 185.538 23.1501 186.688 22.0902L188.194 23.6034C186.802 25.0432 185.269 25.9497 182.768 25.9497C178.875 25.9497 175.97 22.9368 175.97 19.1307H175.977Z" fill="#004070"/>
<path d="M189.081 20.7772V20.7372C189.081 17.8776 191.374 15.5112 194.467 15.5112C197.56 15.5112 199.832 17.8376 199.832 20.6972V20.7372C199.832 23.5768 197.539 25.9431 194.426 25.9431C191.313 25.9431 189.081 23.6168 189.081 20.7772ZM197.519 20.7772V20.7372C197.519 18.9774 196.242 17.5176 194.426 17.5176C192.611 17.5176 191.387 18.9574 191.387 20.6972V20.7372C191.387 22.4769 192.665 23.9367 194.46 23.9367C196.255 23.9367 197.512 22.4969 197.512 20.7772H197.519Z" fill="#004070"/>
<path d="M201.795 15.7247H204.108V17.2578C204.761 16.3313 205.695 15.5181 207.262 15.5181C209.534 15.5181 210.852 17.0312 210.852 19.3442V25.7233H208.539V20.0441C208.539 18.491 207.759 17.6044 206.381 17.6044C205.003 17.6044 204.108 18.531 204.108 20.0841V25.7233H201.795V15.7247Z" fill="#004070"/>
<path d="M214.006 22.9566V17.6907H212.728V15.7243H214.006V12.978H216.318V15.7243H219.028V17.6907H216.318V22.5967C216.318 23.4832 216.776 23.8432 217.562 23.8432C218.08 23.8432 218.537 23.7299 218.994 23.5032V25.3763C218.423 25.6963 217.791 25.8896 216.91 25.8896C215.209 25.8896 214.006 25.1497 214.006 22.9566Z" fill="#004070"/>
<path d="M221.187 15.7247H223.499V17.9777C224.131 16.4846 225.295 15.4581 227.07 15.5381V17.9644H226.935C224.911 17.9644 223.499 19.2709 223.499 21.9238V25.73H221.187V15.7314V15.7247Z" fill="#004070"/>
<path d="M227.89 20.744V20.704C227.89 17.3911 230.162 15.5181 232.569 15.5181C234.23 15.5181 235.279 16.3313 236.005 17.2778V15.7247H238.318V25.7233H236.005V24.0569C235.259 25.0967 234.21 25.93 232.569 25.93C230.203 25.93 227.89 24.0569 227.89 20.744ZM236.045 20.744V20.704C236.045 18.7709 234.667 17.5045 233.121 17.5045C231.574 17.5045 230.216 18.7176 230.216 20.704V20.744C230.216 22.6771 231.554 23.9436 233.121 23.9436C234.687 23.9436 236.045 22.6571 236.045 20.744Z" fill="#004070"/>
<path d="M240.282 20.7772V20.7372C240.282 17.8976 242.494 15.5112 245.533 15.5112C247.422 15.5112 248.605 16.2111 249.56 17.2377L248.108 18.7708C247.402 18.0309 246.656 17.5243 245.513 17.5243C243.832 17.5243 242.588 18.9641 242.588 20.7038V20.7438C242.588 22.5236 243.832 23.9434 245.607 23.9434C246.696 23.9434 247.496 23.4501 248.222 22.7102L249.614 24.0767C248.619 25.1766 247.456 25.9498 245.486 25.9498C242.487 25.9498 240.275 23.6234 240.275 20.7838L240.282 20.7772Z" fill="#004070"/>
<path d="M251.839 22.9566V17.6907H250.562V15.7243H251.839V12.978H254.152V15.7243H256.862V17.6907H254.152V22.5967C254.152 23.4832 254.61 23.8432 255.396 23.8432C255.914 23.8432 256.371 23.7299 256.828 23.5032V25.3763C256.257 25.6963 255.625 25.8896 254.744 25.8896C253.043 25.8896 251.839 25.1497 251.839 22.9566Z" fill="#004070"/>
<path d="M56.707 31.0091H59.2082L63.276 37.2749L67.3438 31.0091H69.845V44.2606H67.4984V34.7553L63.276 41.0011H63.202L59.02 34.7886V44.2539H56.707V31.0024V31.0091Z" fill="#004070"/>
<path d="M72.1172 39.288V39.248C72.1172 35.9351 74.3898 34.062 76.7968 34.062C78.4575 34.062 79.5064 34.8752 80.2326 35.8218V34.2687H82.5455V44.2673H80.2326V42.6008C79.4863 43.6407 78.4374 44.4739 76.7968 44.4739C74.4301 44.4739 72.1172 42.6008 72.1172 39.288ZM80.2729 39.288V39.248C80.2729 37.3149 78.8946 36.0484 77.3482 36.0484C75.8017 36.0484 74.4436 37.2616 74.4436 39.248V39.288C74.4436 41.221 75.7816 42.4875 77.3482 42.4875C78.9148 42.4875 80.2729 41.201 80.2729 39.288Z" fill="#004070"/>
<path d="M85.0669 34.2687H87.3798V35.8018C88.032 34.8752 88.9666 34.062 90.5332 34.062C92.8058 34.062 94.1236 35.5751 94.1236 37.8881V44.2673H91.8107V38.588C91.8107 37.0349 91.0307 36.1484 89.6524 36.1484C88.2741 36.1484 87.3798 37.0749 87.3798 38.628V44.2673H85.0669V34.2687Z" fill="#004070"/>
<path d="M96.0063 39.288V39.248C96.0063 35.9351 98.2789 34.062 100.686 34.062C102.347 34.062 103.396 34.8752 104.122 35.8218V34.2687H106.435V44.2673H104.122V42.6008C103.375 43.6407 102.327 44.4739 100.686 44.4739C98.3193 44.4739 96.0063 42.6008 96.0063 39.288ZM104.162 39.288V39.248C104.162 37.3149 102.784 36.0484 101.237 36.0484C99.6909 36.0484 98.3327 37.2616 98.3327 39.248V39.288C98.3327 41.221 99.6707 42.4875 101.237 42.4875C102.804 42.4875 104.162 41.201 104.162 39.288Z" fill="#004070"/>
<path d="M108.936 46.1403L109.797 44.4206C110.886 45.0805 112.015 45.4804 113.387 45.4804C115.451 45.4804 116.574 44.4206 116.574 42.4142V41.641C115.734 42.7208 114.685 43.474 113.024 43.474C110.657 43.474 108.438 41.7343 108.438 38.7947V38.7547C108.438 35.8018 110.671 34.062 113.024 34.062C114.725 34.062 115.774 34.8419 116.561 35.7684V34.2753H118.874V42.2275C118.874 43.914 118.436 45.1605 117.596 45.9937C116.682 46.9002 115.263 47.3402 113.454 47.3402C111.794 47.3402 110.247 46.9269 108.949 46.147L108.936 46.1403ZM116.594 38.7747V38.7347C116.594 37.1083 115.236 35.9884 113.636 35.9884C112.036 35.9884 110.772 37.0883 110.772 38.7347V38.7747C110.772 40.4011 112.049 41.521 113.636 41.521C115.223 41.521 116.594 40.4011 116.594 38.7747Z" fill="#004070"/>
<path d="M120.83 39.3011V39.2611C120.83 36.4015 122.874 34.0552 125.758 34.0552C128.966 34.0552 130.593 36.5548 130.593 39.4344C130.593 39.6411 130.573 39.8544 130.552 40.081H123.143C123.392 41.7074 124.555 42.6207 126.048 42.6207C127.177 42.6207 127.977 42.2074 128.777 41.4275L130.136 42.6207C129.181 43.7538 127.863 44.4937 126.007 44.4937C123.082 44.4937 120.83 42.394 120.83 39.3078V39.3011ZM128.3 38.5679C128.145 37.0881 127.271 35.9349 125.738 35.9349C124.326 35.9349 123.331 37.0148 123.123 38.5679H128.3Z" fill="#004070"/>
<path d="M132.536 34.2685H134.849V35.7816C135.501 34.8951 136.375 34.0552 137.921 34.0552C139.374 34.0552 140.402 34.7551 140.94 35.8149C141.74 34.7551 142.809 34.0552 144.342 34.0552C146.541 34.0552 147.879 35.435 147.879 37.8813V44.2604H145.566V38.5812C145.566 36.9881 144.82 36.1416 143.522 36.1416C142.224 36.1416 141.364 37.0148 141.364 38.6212V44.2604H139.051V38.5612C139.051 37.0081 138.284 36.1349 137.007 36.1349C135.729 36.1349 134.849 37.0814 134.849 38.6145V44.2538H132.536V34.2551V34.2685Z" fill="#004070"/>
<path d="M149.741 39.3011V39.2611C149.741 36.4015 151.785 34.0552 154.67 34.0552C157.877 34.0552 159.504 36.5548 159.504 39.4344C159.504 39.6411 159.484 39.8544 159.464 40.081H152.054C152.303 41.7074 153.466 42.6207 154.959 42.6207C156.088 42.6207 156.888 42.2074 157.689 41.4275L159.047 42.6207C158.092 43.7538 156.774 44.4937 154.918 44.4937C151.994 44.4937 149.741 42.394 149.741 39.3078V39.3011ZM157.211 38.5679C157.056 37.0881 156.182 35.9349 154.649 35.9349C153.237 35.9349 152.242 37.0148 152.034 38.5679H157.211Z" fill="#004070"/>
<path d="M161.447 34.2687H163.76V35.8018C164.412 34.8752 165.347 34.062 166.914 34.062C169.186 34.062 170.504 35.5751 170.504 37.8881V44.2673H168.191V38.588C168.191 37.0349 167.411 36.1484 166.033 36.1484C164.654 36.1484 163.76 37.0749 163.76 38.628V44.2673H161.447V34.2687Z" fill="#004070"/>
<path d="M173.112 41.5011V36.2351H171.835V34.2687H173.112V31.5225H175.425V34.2687H178.135V36.2351H175.425V41.1411C175.425 42.0277 175.883 42.3876 176.669 42.3876C177.187 42.3876 177.644 42.2743 178.101 42.0477V43.9207C177.53 44.2407 176.898 44.434 176.017 44.434C174.316 44.434 173.112 43.6941 173.112 41.5011Z" fill="#004070"/>
<path d="M184.751 31.0088H187.098V44.2603H184.751V31.0088Z" fill="#004070"/>
<path d="M190.022 34.2687H192.335V35.8018C192.988 34.8752 193.922 34.062 195.489 34.062C197.761 34.062 199.079 35.5751 199.079 37.8881V44.2673H196.766V38.588C196.766 37.0349 195.986 36.1484 194.608 36.1484C193.23 36.1484 192.335 37.0749 192.335 38.628V44.2673H190.022V34.2687Z" fill="#004070"/>
<path d="M200.652 42.9608L201.681 41.4077C202.79 42.2209 203.954 42.6409 204.982 42.6409C206.011 42.6409 206.549 42.2209 206.549 41.561V41.521C206.549 40.7478 205.48 40.4812 204.297 40.1212C202.804 39.7079 201.143 39.1014 201.143 37.1883V37.1483C201.143 35.2552 202.73 34.1021 204.734 34.1021C205.991 34.1021 207.369 34.5353 208.438 35.2352L207.524 36.8617C206.549 36.2751 205.52 35.9151 204.68 35.9151C203.786 35.9151 203.268 36.3351 203.268 36.9017V36.9417C203.268 37.6816 204.357 37.9815 205.54 38.3615C207.013 38.8147 208.674 39.4813 208.674 41.2744V41.3144C208.674 43.4141 207.033 44.4606 204.929 44.4606C203.496 44.4606 201.91 43.9473 200.652 42.9675V42.9608Z" fill="#004070"/>
<path d="M210.946 41.5011V36.2351H209.669V34.2687H210.946V31.5225H213.259V34.2687H215.969V36.2351H213.259V41.1411C213.259 42.0277 213.717 42.3876 214.503 42.3876C215.021 42.3876 215.478 42.2743 215.935 42.0477V43.9207C215.364 44.2407 214.732 44.434 213.851 44.434C212.15 44.434 210.946 43.6941 210.946 41.5011Z" fill="#004070"/>
<path d="M217.979 30.5557H220.461V32.7354H217.979V30.5557ZM218.074 34.2685H220.387V44.2671H218.074V34.2685Z" fill="#004070"/>
<path d="M223.493 41.5011V36.2351H222.215V34.2687H223.493V31.5225H225.806V34.2687H228.515V36.2351H225.806V41.1411C225.806 42.0277 226.263 42.3876 227.05 42.3876C227.567 42.3876 228.025 42.2743 228.482 42.0477V43.9207C227.91 44.2407 227.278 44.434 226.397 44.434C224.696 44.434 223.493 43.6941 223.493 41.5011Z" fill="#004070"/>
<path d="M230.371 40.6277V34.2686H232.684V39.9478C232.684 41.5009 233.464 42.3741 234.842 42.3741C236.221 42.3741 237.115 41.4676 237.115 39.9144V34.2752H239.448V44.2738H237.115V42.7207C236.463 43.6672 235.528 44.4805 233.961 44.4805C231.689 44.4805 230.371 42.9673 230.371 40.6343V40.6277Z" fill="#004070"/>
<path d="M242.42 41.5011V36.2351H241.142V34.2687H242.42V31.5225H244.732V34.2687H247.442V36.2351H244.732V41.1411C244.732 42.0277 245.19 42.3876 245.976 42.3876C246.494 42.3876 246.951 42.2743 247.408 42.0477V43.9207C246.837 44.2407 246.205 44.434 245.324 44.434C243.623 44.434 242.42 43.6941 242.42 41.5011Z" fill="#004070"/>
<path d="M248.565 39.3011V39.2611C248.565 36.4015 250.609 34.0552 253.493 34.0552C256.7 34.0552 258.328 36.5548 258.328 39.4344C258.328 39.6411 258.307 39.8544 258.287 40.081H250.878C251.127 41.7074 252.29 42.6207 253.782 42.6207C254.912 42.6207 255.712 42.2074 256.512 41.4275L257.87 42.6207C256.916 43.7538 255.598 44.4937 253.742 44.4937C250.817 44.4937 248.565 42.394 248.565 39.3078V39.3011ZM256.035 38.5679C255.88 37.0881 255.006 35.9349 253.473 35.9349C252.061 35.9349 251.066 37.0148 250.858 38.5679H256.035Z" fill="#004070"/>
<path d="M44.638 44.2673H14.2607V14.1382H44.638V44.2673ZM19.2497 39.3147H39.6356V19.0842H19.2497V39.3147Z" fill="#00ABEB"/>
<path d="M17.3267 33.6886C8.14229 33.6886 0.672363 26.2829 0.672363 17.1775C0.672363 8.07214 8.14229 0.666504 17.3267 0.666504C26.5112 0.666504 33.9811 8.07214 33.9811 17.1775C33.9811 26.2829 26.5112 33.6886 17.3267 33.6886ZM17.3267 5.61915C10.899 5.61915 5.668 10.8051 5.668 17.1775C5.668 23.55 10.899 28.7359 17.3267 28.7359C23.7545 28.7359 28.9855 23.55 28.9855 17.1775C28.9855 10.8051 23.7545 5.61915 17.3267 5.61915Z" fill="#004070"/>
</g>
<defs>
<clipPath id="clip0_146_12994">
<rect width="259" height="48" fill="white"/>
</clipPath>
</defs>
</svg>
