<svg width="183" height="34" viewBox="0 0 183 34" fill="none" xmlns="http://www.w3.org/2000/svg">
<g clip-path="url(#clip0_111_21346)">
<path d="M39.5729 13.551V13.5227C39.5729 10.855 41.5824 8.66895 44.4423 8.66895C46.181 8.66895 47.2357 9.27331 48.1383 10.1326L47.0741 11.3555C46.3188 10.6567 45.5112 10.1893 44.428 10.1893C42.6323 10.1893 41.3116 11.6624 41.3116 13.5038V13.5322C41.3116 15.3688 42.6228 16.8561 44.428 16.8561C45.5872 16.8561 46.333 16.3981 47.1407 15.6474L48.2048 16.7192C47.2214 17.7391 46.1383 18.3812 44.371 18.3812C41.6204 18.3812 39.5681 16.2471 39.5681 13.551H39.5729Z" fill="white"/>
<path d="M48.8271 14.7173V14.689C48.8271 12.6635 50.4471 10.9873 52.6324 10.9873C54.8177 10.9873 56.4234 12.6351 56.4234 14.6607V14.689C56.4234 16.7004 54.8035 18.3766 52.6039 18.3766C50.4044 18.3766 48.8271 16.7287 48.8271 14.7173ZM54.794 14.7173V14.689C54.794 13.4425 53.8913 12.4085 52.6087 12.4085C51.326 12.4085 50.4614 13.4284 50.4614 14.6607V14.689C50.4614 15.9213 51.364 16.9554 52.6324 16.9554C53.9008 16.9554 54.7892 15.9355 54.7892 14.7173H54.794Z" fill="white"/>
<path d="M57.8154 11.1384H59.4497V12.2102C59.9105 11.5822 60.5281 10.9873 61.6207 10.9873C62.6469 10.9873 63.3737 11.4831 63.7537 12.2338C64.3191 11.4831 65.0744 10.9873 66.1576 10.9873C67.711 10.9873 68.6564 11.9647 68.6564 13.6975V18.216H67.0222V14.1932C67.0222 13.0648 66.4949 12.4652 65.578 12.4652C64.6611 12.4652 64.053 13.0837 64.053 14.2216V18.216H62.4188V14.1791C62.4188 13.079 61.8772 12.4604 60.9746 12.4604C60.072 12.4604 59.4497 13.1309 59.4497 14.2169V18.2113H57.8154V11.129V11.1384Z" fill="white"/>
<path d="M70.3621 11.1384H71.9963V12.2102C72.4571 11.5822 73.0747 10.9873 74.1673 10.9873C75.1935 10.9873 75.9203 11.4831 76.3004 12.2338C76.8657 11.4831 77.6211 10.9873 78.7042 10.9873C80.2577 10.9873 81.2031 11.9647 81.2031 13.6975V18.216H79.5688V14.1932C79.5688 13.0648 79.0415 12.4652 78.1246 12.4652C77.2078 12.4652 76.5997 13.0837 76.5997 14.2216V18.216H74.9654V14.1791C74.9654 13.079 74.4239 12.4604 73.5212 12.4604C72.6186 12.4604 71.9963 13.1309 71.9963 14.2169V18.2113H70.3621V11.129V11.1384Z" fill="white"/>
<path d="M82.6567 14.7032V14.6748C82.6567 12.6493 84.1009 10.9873 86.139 10.9873C88.405 10.9873 89.5547 12.7579 89.5547 14.7976C89.5547 14.944 89.5404 15.0951 89.5262 15.2556H84.291C84.4667 16.4077 85.2886 17.0545 86.3432 17.0545C87.1414 17.0545 87.7067 16.7618 88.272 16.2094L89.2316 17.0545C88.5571 17.8572 87.6259 18.3813 86.3147 18.3813C84.2482 18.3813 82.6567 16.894 82.6567 14.7079V14.7032ZM87.93 14.1838C87.8207 13.1356 87.2031 12.3188 86.12 12.3188C85.1223 12.3188 84.4192 13.0837 84.272 14.1838H87.93Z" fill="white"/>
<path d="M90.9275 11.1382H92.5617V12.7341C93.0083 11.6765 93.8301 10.9494 95.0843 11.006V12.7247H94.9893C93.5594 12.7247 92.5617 13.6501 92.5617 15.5293V18.2253H90.9275V11.1429V11.1382Z" fill="white"/>
<path d="M95.5926 14.7173V14.689C95.5926 12.6776 97.1556 10.9873 99.3029 10.9873C100.638 10.9873 101.474 11.4831 102.149 12.2102L101.122 13.2962C100.624 12.7721 100.096 12.4132 99.2886 12.4132C98.101 12.4132 97.2221 13.4331 97.2221 14.6654V14.6937C97.2221 15.9544 98.101 16.9601 99.3552 16.9601C100.125 16.9601 100.69 16.6107 101.203 16.0866L102.187 17.0545C101.483 17.8336 100.662 18.3813 99.2696 18.3813C97.1509 18.3813 95.5879 16.7335 95.5879 14.7221L95.5926 14.7173Z" fill="white"/>
<path d="M102.828 14.7032V14.6748C102.828 12.6493 104.272 10.9873 106.31 10.9873C108.576 10.9873 109.726 12.7579 109.726 14.7976C109.726 14.944 109.712 15.0951 109.697 15.2556H104.462C104.638 16.4077 105.46 17.0545 106.514 17.0545C107.313 17.0545 107.878 16.7618 108.443 16.2094L109.403 17.0545C108.728 17.8572 107.797 18.3813 106.486 18.3813C104.419 18.3813 102.828 16.894 102.828 14.7079V14.7032ZM108.101 14.1838C107.992 13.1356 107.374 12.3188 106.291 12.3188C105.293 12.3188 104.59 13.0837 104.443 14.1838H108.101Z" fill="white"/>
<path d="M119.156 16.9459C118.4 17.7533 117.493 18.2869 116.362 18.3624C114.6 18.4852 113.203 17.522 113.089 15.9025V15.8741C113.004 14.6701 113.655 13.7494 114.909 13.112C114.324 12.4652 114.039 11.8939 113.992 11.2139V11.1856C113.902 9.92968 114.847 8.75873 116.529 8.6407C118.025 8.53682 119.104 9.47169 119.194 10.7276V10.756C119.284 11.9883 118.515 12.7815 117.294 13.3339L119.023 14.8543C119.351 14.2924 119.64 13.655 119.906 12.9798L121.203 13.5464C120.88 14.3207 120.515 15.0856 120.073 15.7608L121.674 17.1537L120.496 18.1216L119.156 16.9365V16.9459ZM118.144 16.0488L115.892 14.0658C115.042 14.5002 114.709 15.1045 114.747 15.7042V15.7325C114.804 16.521 115.503 17.0498 116.419 16.9884C117.066 16.9412 117.636 16.5965 118.139 16.0488H118.144ZM117.735 10.9543V10.9259C117.688 10.298 117.213 9.90135 116.595 9.94385C115.921 9.99106 115.498 10.4915 115.545 11.1478V11.1762C115.579 11.6436 115.792 11.9788 116.358 12.5171C117.303 12.1016 117.783 11.6247 117.735 10.9543Z" fill="white"/>
<path d="M124.339 13.551V13.5227C124.339 10.855 126.349 8.66895 129.208 8.66895C130.947 8.66895 132.002 9.27331 132.904 10.1326L131.84 11.3555C131.085 10.6567 130.277 10.1893 129.194 10.1893C127.398 10.1893 126.078 11.6624 126.078 13.5038V13.5322C126.078 15.3688 127.389 16.8561 129.194 16.8561C130.353 16.8561 131.094 16.3981 131.907 15.6474L132.971 16.7192C131.988 17.7391 130.904 18.3812 129.137 18.3812C126.387 18.3812 124.334 16.2471 124.334 13.551H124.339Z" fill="white"/>
<path d="M133.598 14.7173V14.689C133.598 12.6635 135.218 10.9873 137.403 10.9873C139.588 10.9873 141.194 12.6351 141.194 14.6607V14.689C141.194 16.7004 139.574 18.3766 137.375 18.3766C135.175 18.3766 133.598 16.7287 133.598 14.7173ZM139.56 14.7173V14.689C139.56 13.4425 138.657 12.4085 137.375 12.4085C136.092 12.4085 135.227 13.4284 135.227 14.6607V14.689C135.227 15.9213 136.13 16.9554 137.398 16.9554C138.667 16.9554 139.555 15.9355 139.555 14.7173H139.56Z" fill="white"/>
<path d="M142.582 11.1381H144.216V12.224C144.677 11.5677 145.337 10.9917 146.444 10.9917C148.05 10.9917 148.981 12.0635 148.981 13.7019V18.2204H147.346V14.1976C147.346 13.0975 146.795 12.4695 145.821 12.4695C144.848 12.4695 144.216 13.1258 144.216 14.226V18.2204H142.582V11.1381Z" fill="white"/>
<path d="M151.209 16.2611V12.531H150.306V11.1382H151.209V9.19287H152.843V11.1382H154.757V12.531H152.843V16.0061C152.843 16.6341 153.166 16.889 153.722 16.889C154.087 16.889 154.41 16.8088 154.734 16.6482V17.975C154.33 18.2016 153.883 18.3385 153.261 18.3385C152.059 18.3385 151.209 17.8145 151.209 16.2611Z" fill="white"/>
<path d="M156.282 11.1382H157.916V12.7341C158.363 11.6765 159.185 10.9494 160.439 11.006V12.7247H160.344C158.914 12.7247 157.916 13.6501 157.916 15.5293V18.2253H156.282V11.1429V11.1382Z" fill="white"/>
<path d="M161.019 14.6934V14.6651C161.019 12.3185 162.625 10.9917 164.325 10.9917C165.499 10.9917 166.24 11.5677 166.753 12.2382V11.1381H168.387V18.2204H166.753V17.04C166.226 17.7766 165.484 18.3668 164.325 18.3668C162.653 18.3668 161.019 17.04 161.019 14.6934ZM166.781 14.6934V14.6651C166.781 13.2958 165.807 12.3987 164.715 12.3987C163.622 12.3987 162.663 13.2581 162.663 14.6651V14.6934C162.663 16.0627 163.608 16.9598 164.715 16.9598C165.822 16.9598 166.781 16.0485 166.781 14.6934Z" fill="white"/>
<path d="M169.774 14.7173V14.689C169.774 12.6776 171.337 10.9873 173.485 10.9873C174.819 10.9873 175.656 11.4831 176.33 12.2102L175.304 13.2962C174.805 12.7721 174.278 12.4132 173.47 12.4132C172.283 12.4132 171.404 13.4331 171.404 14.6654V14.6937C171.404 15.9544 172.283 16.9601 173.537 16.9601C174.306 16.9601 174.872 16.6107 175.385 16.0866L176.368 17.0545C175.665 17.8336 174.843 18.3813 173.451 18.3813C171.332 18.3813 169.77 16.7335 169.77 14.7221L169.774 14.7173Z" fill="white"/>
<path d="M177.94 16.2611V12.531H177.038V11.1382H177.94V9.19287H179.575V11.1382H181.489V12.531H179.575V16.0061C179.575 16.6341 179.898 16.889 180.454 16.889C180.819 16.889 181.142 16.8088 181.465 16.6482V17.975C181.062 18.2016 180.615 18.3385 179.993 18.3385C178.791 18.3385 177.94 17.8145 177.94 16.2611Z" fill="white"/>
<path d="M40.0671 21.9647H41.8344L44.7085 26.403L47.5827 21.9647H49.3499V31.3512H47.6919V24.6182L44.7085 29.0423H44.6563L41.7014 24.6418V31.3464H40.0671V21.96V21.9647Z" fill="white"/>
<path d="M50.9556 27.8291V27.8008C50.9556 25.4542 52.5613 24.1274 54.262 24.1274C55.4354 24.1274 56.1765 24.7035 56.6896 25.3739V24.2738H58.3238V31.3562H56.6896V30.1758C56.1623 30.9123 55.4212 31.5025 54.262 31.5025C52.5898 31.5025 50.9556 30.1758 50.9556 27.8291ZM56.7181 27.8291V27.8008C56.7181 26.4316 55.7442 25.5345 54.6516 25.5345C53.5589 25.5345 52.5993 26.3938 52.5993 27.8008V27.8291C52.5993 29.1984 53.5447 30.0955 54.6516 30.0955C55.7585 30.0955 56.7181 29.1842 56.7181 27.8291Z" fill="white"/>
<path d="M60.1052 24.2738H61.7395V25.3598C62.2003 24.7035 62.8606 24.1274 63.9675 24.1274C65.5732 24.1274 66.5044 25.1992 66.5044 26.8376V31.3562H64.8701V27.3334C64.8701 26.2333 64.3191 25.6053 63.3452 25.6053C62.3713 25.6053 61.7395 26.2616 61.7395 27.3617V31.3562H60.1052V24.2738Z" fill="white"/>
<path d="M67.8347 27.8291V27.8008C67.8347 25.4542 69.4404 24.1274 71.1412 24.1274C72.3146 24.1274 73.0557 24.7035 73.5688 25.3739V24.2738H75.203V31.3562H73.5688V30.1758C73.0414 30.9123 72.3003 31.5025 71.1412 31.5025C69.4689 31.5025 67.8347 30.1758 67.8347 27.8291ZM73.5973 27.8291V27.8008C73.5973 26.4316 72.6234 25.5345 71.5307 25.5345C70.4381 25.5345 69.4784 26.3938 69.4784 27.8008V27.8291C69.4784 29.1984 70.4238 30.0955 71.5307 30.0955C72.6376 30.0955 73.5973 29.1842 73.5973 27.8291Z" fill="white"/>
<path d="M76.9702 32.6829L77.5783 31.4648C78.3479 31.9322 79.146 32.2155 80.1151 32.2155C81.5736 32.2155 82.3669 31.4648 82.3669 30.0436V29.4959C81.7731 30.2608 81.032 30.7943 79.8586 30.7943C78.1864 30.7943 76.6187 29.562 76.6187 27.4798V27.4514C76.6187 25.3598 78.1959 24.1274 79.8586 24.1274C81.0605 24.1274 81.8016 24.6799 82.3574 25.3362V24.2785H83.9917V29.9114C83.9917 31.1059 83.6829 31.9889 83.089 32.579C82.443 33.2212 81.4406 33.5328 80.1626 33.5328C78.9892 33.5328 77.8966 33.2401 76.9797 32.6876L76.9702 32.6829ZM82.3812 27.4656V27.4373C82.3812 26.2852 81.4216 25.492 80.2909 25.492C79.1603 25.492 78.2671 26.271 78.2671 27.4373V27.4656C78.2671 28.6177 79.1698 29.4109 80.2909 29.4109C81.4121 29.4109 82.3812 28.6177 82.3812 27.4656Z" fill="white"/>
<path d="M85.374 27.8384V27.8101C85.374 25.7846 86.8182 24.1226 88.8562 24.1226C91.1223 24.1226 92.272 25.8931 92.272 27.9329C92.272 28.0792 92.2577 28.2303 92.2435 28.3909H87.0082C87.184 29.5429 88.0059 30.1898 89.0605 30.1898C89.8586 30.1898 90.424 29.897 90.9893 29.3446L91.9489 30.1898C91.2743 30.9924 90.3432 31.5165 89.032 31.5165C86.9655 31.5165 85.374 30.0292 85.374 27.8432V27.8384ZM90.652 27.3191C90.5427 26.2709 89.9251 25.454 88.842 25.454C87.8444 25.454 87.1413 26.2189 86.994 27.3191H90.652Z" fill="white"/>
<path d="M93.645 24.2736H95.2792V25.3454C95.7401 24.7175 96.3576 24.1226 97.4503 24.1226C98.4764 24.1226 99.2033 24.6183 99.5833 25.3691C100.149 24.6183 100.904 24.1226 101.987 24.1226C103.541 24.1226 104.486 25.0999 104.486 26.8327V31.3513H102.852V27.3285C102.852 26.2 102.324 25.6004 101.408 25.6004C100.491 25.6004 99.8826 26.2189 99.8826 27.3568V31.3513H98.2484V27.3143C98.2484 26.2142 97.7068 25.5957 96.8042 25.5957C95.9016 25.5957 95.2792 26.2661 95.2792 27.3521V31.3466H93.645V24.2642V24.2736Z" fill="white"/>
<path d="M105.802 27.8384V27.8101C105.802 25.7846 107.246 24.1226 109.284 24.1226C111.55 24.1226 112.7 25.8931 112.7 27.9329C112.7 28.0792 112.685 28.2303 112.671 28.3909H107.436C107.612 29.5429 108.434 30.1898 109.488 30.1898C110.286 30.1898 110.852 29.897 111.417 29.3446L112.377 30.1898C111.702 30.9924 110.771 31.5165 109.46 31.5165C107.393 31.5165 105.802 30.0292 105.802 27.8432V27.8384ZM111.08 27.3191C110.97 26.2709 110.353 25.454 109.27 25.454C108.272 25.454 107.569 26.2189 107.422 27.3191H111.08Z" fill="white"/>
<path d="M114.073 24.2738H115.707V25.3598C116.168 24.7035 116.828 24.1274 117.935 24.1274C119.541 24.1274 120.472 25.1992 120.472 26.8376V31.3562H118.838V27.3334C118.838 26.2333 118.287 25.6053 117.313 25.6053C116.339 25.6053 115.707 26.2616 115.707 27.3617V31.3562H114.073V24.2738Z" fill="white"/>
<path d="M122.315 29.3963V25.6663H121.413V24.2734H122.315V22.3281H123.949V24.2734H125.864V25.6663H123.949V29.1413C123.949 29.7693 124.272 30.0243 124.828 30.0243C125.194 30.0243 125.517 29.944 125.84 29.7835V31.1102C125.436 31.3369 124.99 31.4738 124.368 31.4738C123.166 31.4738 122.315 30.9497 122.315 29.3963Z" fill="white"/>
<path d="M130.539 21.9648H132.197V31.3513H130.539V21.9648Z" fill="white"/>
<path d="M134.263 24.2738H135.897V25.3598C136.358 24.7035 137.018 24.1274 138.125 24.1274C139.731 24.1274 140.662 25.1992 140.662 26.8376V31.3562H139.028V27.3334C139.028 26.2333 138.477 25.6053 137.503 25.6053C136.529 25.6053 135.897 26.2616 135.897 27.3617V31.3562H134.263V24.2738Z" fill="white"/>
<path d="M141.774 30.4307L142.501 29.3306C143.285 29.9066 144.106 30.2041 144.833 30.2041C145.56 30.2041 145.94 29.9066 145.94 29.4392V29.4109C145.94 28.8632 145.185 28.6743 144.349 28.4193C143.294 28.1266 142.121 27.6969 142.121 26.3418V26.3135C142.121 24.9726 143.242 24.1558 144.658 24.1558C145.546 24.1558 146.52 24.4627 147.275 24.9584L146.629 26.1105C145.94 25.695 145.213 25.44 144.62 25.44C143.988 25.44 143.622 25.7375 143.622 26.1388V26.1671C143.622 26.6912 144.392 26.9037 145.228 27.1728C146.268 27.4939 147.441 27.9661 147.441 29.2362V29.2645C147.441 30.7518 146.282 31.4931 144.795 31.4931C143.783 31.4931 142.662 31.1295 141.774 30.4354V30.4307Z" fill="white"/>
<path d="M149.047 29.3963V25.6663H148.145V24.2734H149.047V22.3281H150.681V24.2734H152.596V25.6663H150.681V29.1413C150.681 29.7693 151.004 30.0243 151.56 30.0243C151.926 30.0243 152.249 29.944 152.572 29.7835V31.1102C152.168 31.3369 151.722 31.4738 151.099 31.4738C149.898 31.4738 149.047 30.9497 149.047 29.3963Z" fill="white"/>
<path d="M154.016 21.6436H155.769V23.1875H154.016V21.6436ZM154.083 24.2735H155.717V31.3558H154.083V24.2735Z" fill="white"/>
<path d="M157.912 29.3963V25.6663H157.009V24.2734H157.912V22.3281H159.546V24.2734H161.461V25.6663H159.546V29.1413C159.546 29.7693 159.869 30.0243 160.425 30.0243C160.791 30.0243 161.114 29.944 161.437 29.7835V31.1102C161.033 31.3369 160.587 31.4738 159.964 31.4738C158.762 31.4738 157.912 30.9497 157.912 29.3963Z" fill="white"/>
<path d="M162.772 28.7778V24.2734H164.406V28.2962C164.406 29.3963 164.957 30.0149 165.931 30.0149C166.905 30.0149 167.537 29.3727 167.537 28.2726V24.2782H169.185V31.3605H167.537V30.2604C167.076 30.9308 166.415 31.5069 165.309 31.5069C163.703 31.5069 162.772 30.4351 162.772 28.7825V28.7778Z" fill="white"/>
<path d="M171.285 29.3963V25.6663H170.382V24.2734H171.285V22.3281H172.919V24.2734H174.834V25.6663H172.919V29.1413C172.919 29.7693 173.242 30.0243 173.798 30.0243C174.164 30.0243 174.487 29.944 174.81 29.7835V31.1102C174.406 31.3369 173.96 31.4738 173.337 31.4738C172.135 31.4738 171.285 30.9497 171.285 29.3963Z" fill="white"/>
<path d="M175.627 27.8384V27.8101C175.627 25.7846 177.071 24.1226 179.109 24.1226C181.375 24.1226 182.525 25.8931 182.525 27.9329C182.525 28.0792 182.511 28.2303 182.496 28.3909H177.261C177.437 29.5429 178.259 30.1898 179.313 30.1898C180.112 30.1898 180.677 29.897 181.242 29.3446L182.202 30.1898C181.527 30.9924 180.596 31.5165 179.285 31.5165C177.218 31.5165 175.627 30.0292 175.627 27.8432V27.8384ZM180.905 27.3191C180.796 26.2709 180.178 25.454 179.095 25.454C178.097 25.454 177.394 26.2189 177.247 27.3191H180.905Z" fill="white"/>
<path d="M31.5396 31.3561H10.0762V10.0146H31.5396V31.3561ZM13.6012 27.848H28.0051V13.5181H13.6012V27.848Z" fill="#00ABEB"/>
<path d="M12.2425 23.8628C5.75308 23.8628 0.475098 18.6171 0.475098 12.1675C0.475098 5.71783 5.75308 0.472168 12.2425 0.472168C18.7319 0.472168 24.0098 5.71783 24.0098 12.1675C24.0098 18.6171 18.7319 23.8628 12.2425 23.8628ZM12.2425 3.98029C7.70084 3.98029 4.00483 7.65367 4.00483 12.1675C4.00483 16.6813 7.70084 20.3547 12.2425 20.3547C16.7841 20.3547 20.4801 16.6813 20.4801 12.1675C20.4801 7.65367 16.7841 3.98029 12.2425 3.98029Z" fill="white"/>
</g>
<defs>
<clipPath id="clip0_111_21346">
<rect width="183" height="34" fill="white"/>
</clipPath>
</defs>
</svg>
